<?xml version="1.0" encoding="UTF-8" standalone="no"?><!DOCTYPE svg PUBLIC "-//W3C//DTD SVG 1.1//EN" "http://www.w3.org/Graphics/SVG/1.1/DTD/svg11.dtd"><svg width="100%" height="100%" viewBox="0 0 71 36" version="1.1" xmlns="http://www.w3.org/2000/svg" xmlns:xlink="http://www.w3.org/1999/xlink" xml:space="preserve" xmlns:serif="http://www.serif.com/" style="fill-rule:evenodd;clip-rule:evenodd;stroke-linejoin:round;stroke-miterlimit:2;"><rect id="Artboard1" x="0" y="0" width="70.34" height="35.842" style="fill:none;"/><g><g><path d="M4.885,31.904l0,0.329l-0.568,-0l0,1.838l-0.4,-0l0,-1.838l-0.448,-0l-0,-0.329l0.448,0l0,-0.759l0.4,-0l0,0.759l0.568,0Z" style="fill:#fff;fill-opacity:0.5;fill-rule:nonzero;"/><path d="M6.688,32.25c-0.257,-0.182 -0.963,-0.08 -0.963,0.711l-0,1.11l-0.396,-0l0,-3.157l0.396,-0l-0,1.399c0.048,-0.169 0.288,-0.471 0.688,-0.471c0.626,-0 0.892,0.439 0.892,0.888l0,1.341l-0.39,-0l-0,-1.101c-0,-0.307 -0.027,-0.573 -0.227,-0.72Z" style="fill:#fff;fill-opacity:0.5;fill-rule:nonzero;"/><path d="M8.553,31.904c0.084,-0.022 0.169,-0.031 0.253,-0.031c0.204,-0 0.409,0.058 0.586,0.173c0.178,0.116 0.32,0.28 0.413,0.475c0.031,0.071 0.058,0.156 0.076,0.236l0.017,0.097l-1.807,0.431c0.067,0.2 0.2,0.337 0.395,0.435c0.156,0.076 0.329,0.098 0.498,0.058c0.199,-0.049 0.373,-0.178 0.475,-0.36l0.319,0.147c-0.066,0.124 -0.155,0.235 -0.261,0.328c-0.134,0.111 -0.285,0.191 -0.453,0.231c-0.289,0.071 -0.587,0.018 -0.835,-0.142c-0.253,-0.164 -0.426,-0.417 -0.493,-0.71c-0.071,-0.298 -0.022,-0.604 0.133,-0.862c0.156,-0.257 0.4,-0.439 0.684,-0.506Zm0.084,0.346c-0.151,0.036 -0.284,0.116 -0.386,0.231c-0.062,0.071 -0.111,0.151 -0.142,0.24c-0.036,0.093 -0.058,0.187 -0.067,0.284l1.448,-0.346c-0.102,-0.169 -0.231,-0.302 -0.413,-0.378c-0.142,-0.053 -0.293,-0.066 -0.44,-0.031Z" style="fill:#fff;fill-opacity:0.5;fill-rule:nonzero;"/><path d="M11.945,31.713c0,-0.368 0.484,-0.466 0.706,-0.466c0.4,-0 0.755,0.129 1.013,0.364l0.013,-0.493c-0.204,-0.186 -0.599,-0.28 -0.977,-0.28c-0.533,0 -1.114,0.258 -1.114,0.87c-0,1.301 1.998,0.643 1.998,1.505c-0,0.258 -0.338,0.529 -0.839,0.529c-0.427,0 -0.88,-0.217 -1.084,-0.44l0,0.511c0.227,0.2 0.657,0.329 1.079,0.329c0.595,-0 1.19,-0.262 1.19,-0.969c0,-1.208 -1.985,-0.564 -1.985,-1.46Z" style="fill:#fff;fill-opacity:0.5;fill-rule:nonzero;"/><path d="M16.013,33.467c-0.138,0.187 -0.351,0.306 -0.591,0.306c-0.413,0 -0.746,-0.35 -0.746,-0.786c0,-0.43 0.333,-0.781 0.746,-0.781c0.231,0 0.44,0.115 0.577,0.293l0.28,-0.262c-0.209,-0.244 -0.515,-0.4 -0.857,-0.4c-0.631,0 -1.137,0.516 -1.137,1.15c0,0.64 0.506,1.155 1.137,1.155c0.351,-0 0.666,-0.164 0.875,-0.417l-0.284,-0.258Z" style="fill:#fff;fill-opacity:0.5;fill-rule:nonzero;"/><path d="M17.926,31.904l-0.04,0c-0.484,0.005 -0.746,0.364 -0.746,0.364l0,-0.364l-0.399,0l-0,2.167l0.399,-0l0,-1.141c0,-0.067 0.005,-0.12 0.023,-0.173c0.022,-0.089 0.071,-0.169 0.137,-0.245c0.12,-0.128 0.302,-0.204 0.493,-0.204c0.044,0 0.089,0.005 0.133,0.013l0,-0.417Z" style="fill:#fff;fill-opacity:0.5;fill-rule:nonzero;"/><path d="M20.124,31.904l0,0.346c-0.142,-0.191 -0.413,-0.417 -0.857,-0.417c-0.288,0 -0.555,0.12 -0.759,0.337c-0.204,0.218 -0.315,0.507 -0.315,0.813c-0,0.635 0.479,1.155 1.074,1.155c0.444,-0 0.715,-0.231 0.857,-0.418l0,0.351l0.409,-0l-0,-2.167l-0.409,0Zm-0.777,1.927c-0.426,0 -0.768,-0.377 -0.768,-0.844c-0,-0.47 0.342,-0.848 0.768,-0.848c0.431,0 0.773,0.378 0.773,0.848c-0,0.467 -0.342,0.844 -0.773,0.844Z" style="fill:#fff;fill-opacity:0.5;fill-rule:nonzero;"/><path d="M22.393,31.904l0,0.329l-0.568,-0l-0,1.838l-0.4,-0l0,-1.838l-0.448,-0l-0,-0.329l0.448,0l0,-0.759l0.4,-0l-0,0.759l0.568,0Z" style="fill:#fff;fill-opacity:0.5;fill-rule:nonzero;"/><path d="M24.387,33.467c-0.138,0.187 -0.351,0.306 -0.591,0.306c-0.413,0 -0.746,-0.35 -0.746,-0.786c0,-0.43 0.333,-0.781 0.746,-0.781c0.231,0 0.44,0.115 0.577,0.293l0.28,-0.262c-0.208,-0.244 -0.515,-0.4 -0.857,-0.4c-0.63,0 -1.136,0.516 -1.136,1.15c-0,0.64 0.506,1.155 1.136,1.155c0.351,-0 0.666,-0.164 0.875,-0.417l-0.284,-0.258Z" style="fill:#fff;fill-opacity:0.5;fill-rule:nonzero;"/><path d="M26.474,32.25c-0.258,-0.182 -0.964,-0.08 -0.964,0.711l0,1.11l-0.395,-0l-0,-3.157l0.395,-0l0,1.399c0.049,-0.169 0.289,-0.471 0.688,-0.471c0.626,-0 0.893,0.439 0.893,0.888l-0,1.341l-0.391,-0l0,-1.101c0,-0.307 -0.027,-0.573 -0.226,-0.72Z" style="fill:#fff;fill-opacity:0.5;fill-rule:nonzero;"/><path d="M31.336,31.842c-0.435,-0 -0.697,0.377 -0.751,0.551c-0.053,-0.174 -0.253,-0.551 -0.75,-0.551c-0.382,-0 -0.613,0.311 -0.657,0.479l-0,-0.417l-0.4,0l0,2.167l0.4,-0l-0,-1.097c-0,-0.795 0.675,-0.897 0.919,-0.715c0.062,0.049 0.106,0.107 0.142,0.178c0.067,0.146 0.067,0.328 0.067,0.537l-0,1.097l0.381,-0l0,-1.097c0,-0.155 0.014,-0.28 0.058,-0.386c0.178,-0.44 0.657,-0.475 0.853,-0.329c0.195,0.147 0.217,0.413 0.217,0.724l0,1.088l0.391,-0l0,-1.341c0,-0.449 -0.266,-0.888 -0.87,-0.888Z" style="fill:#fff;fill-opacity:0.5;fill-rule:nonzero;"/><path d="M33.631,31.842c-0.608,-0 -1.07,0.515 -1.07,1.15c0,0.635 0.462,1.154 1.07,1.154c0.609,0 1.106,-0.519 1.106,-1.154c-0,-0.635 -0.497,-1.15 -1.106,-1.15Zm0,1.931c-0.395,0 -0.719,-0.35 -0.719,-0.781c-0,-0.431 0.324,-0.782 0.719,-0.782c0.4,0 0.724,0.351 0.724,0.782c0,0.431 -0.324,0.781 -0.724,0.781Z" style="fill:#fff;fill-opacity:0.5;fill-rule:nonzero;"/><path d="M37.112,32.17c-0.204,-0.217 -0.47,-0.337 -0.759,-0.337c-0.439,0 -0.706,0.222 -0.852,0.409l-0,-1.328l-0.409,-0l0,3.157l0.409,-0l-0,-0.346c0.142,0.186 0.413,0.413 0.852,0.413c0.595,-0 1.075,-0.52 1.075,-1.155c-0,-0.306 -0.111,-0.595 -0.316,-0.813Zm-0.839,1.661c-0.43,0 -0.772,-0.377 -0.772,-0.844c-0,-0.47 0.342,-0.848 0.772,-0.848c0.427,0 0.768,0.378 0.768,0.848c0,0.467 -0.341,0.844 -0.768,0.844Z" style="fill:#fff;fill-opacity:0.5;fill-rule:nonzero;"/><path d="M38.227,30.914l-0,0.444l-0.4,-0l0,-0.444l0.4,-0Zm-0,0.99l-0,2.167l-0.4,-0l0,-2.167l0.4,0Z" style="fill:#fff;fill-opacity:0.5;fill-rule:nonzero;"/><rect x="38.715" y="30.914" width="0.395" height="3.157" style="fill:#fff;fill-opacity:0.5;fill-rule:nonzero;"/><path d="M40.403,31.904c0.084,-0.022 0.168,-0.031 0.253,-0.031c0.204,-0 0.408,0.058 0.586,0.173c0.177,0.116 0.32,0.28 0.413,0.475c0.031,0.071 0.058,0.156 0.075,0.236l0.018,0.097l-1.807,0.431c0.066,0.2 0.2,0.337 0.395,0.435c0.155,0.076 0.329,0.098 0.497,0.058c0.2,-0.049 0.373,-0.178 0.475,-0.36l0.32,0.147c-0.066,0.124 -0.155,0.235 -0.262,0.328c-0.133,0.111 -0.284,0.191 -0.453,0.231c-0.288,0.071 -0.586,0.018 -0.834,-0.142c-0.254,-0.164 -0.427,-0.417 -0.493,-0.71c-0.071,-0.298 -0.023,-0.604 0.133,-0.862c0.155,-0.257 0.399,-0.439 0.684,-0.506Zm0.084,0.346c-0.151,0.036 -0.284,0.116 -0.386,0.231c-0.062,0.071 -0.111,0.151 -0.142,0.24c-0.036,0.093 -0.058,0.187 -0.067,0.284l1.448,-0.346c-0.103,-0.169 -0.231,-0.302 -0.413,-0.378c-0.142,-0.053 -0.293,-0.066 -0.44,-0.031Z" style="fill:#fff;fill-opacity:0.5;fill-rule:nonzero;"/><path d="M45.367,31.904l-0,0.346c-0.142,-0.191 -0.413,-0.417 -0.857,-0.417c-0.289,0 -0.555,0.12 -0.759,0.337c-0.205,0.218 -0.316,0.507 -0.316,0.813c0,0.635 0.48,1.155 1.075,1.155c0.444,-0 0.715,-0.231 0.857,-0.418l-0,0.351l0.408,-0l0,-2.167l-0.408,0Zm-0.777,1.927c-0.426,0 -0.768,-0.377 -0.768,-0.844c-0,-0.47 0.342,-0.848 0.768,-0.848c0.43,0 0.772,0.378 0.772,0.848c0,0.467 -0.342,0.844 -0.772,0.844Z" style="fill:#fff;fill-opacity:0.5;fill-rule:nonzero;"/><path d="M48.555,32.996c-0,-0.635 -0.48,-1.154 -1.075,-1.154c-0.439,-0 -0.71,0.226 -0.852,0.413l-0,-0.346l-0.409,-0l0,3.205l0.409,0l-0,-1.376c0.146,0.186 0.413,0.408 0.852,0.408c0.285,0 0.555,-0.12 0.76,-0.337c0.204,-0.218 0.315,-0.506 0.315,-0.813Zm-0.386,-0.004c-0,0.471 -0.342,0.848 -0.773,0.848c-0.426,0 -0.768,-0.377 -0.768,-0.848c-0,-0.466 0.342,-0.844 0.768,-0.844c0.431,0 0.773,0.378 0.773,0.844Z" style="fill:#fff;fill-opacity:0.5;fill-rule:nonzero;"/><path d="M51.334,32.996c0,-0.635 -0.479,-1.154 -1.074,-1.154c-0.44,-0 -0.711,0.226 -0.853,0.413l0,-0.346l-0.408,-0l-0,3.205l0.408,0l0,-1.376c0.147,0.186 0.413,0.408 0.853,0.408c0.284,0 0.555,-0.12 0.759,-0.337c0.204,-0.218 0.315,-0.506 0.315,-0.813Zm-0.386,-0.004c0,0.471 -0.342,0.848 -0.772,0.848c-0.427,0 -0.769,-0.377 -0.769,-0.848c0,-0.466 0.342,-0.844 0.769,-0.844c0.43,0 0.772,0.378 0.772,0.844Z" style="fill:#fff;fill-opacity:0.5;fill-rule:nonzero;"/><path d="M36.864,14.907l-0,-11.458l5.812,-0l-0,8.636c0.848,-0.451 1.86,-0.747 3.029,-0.747c2.106,0 3.718,0.625 4.906,1.577c0.451,0.36 0.842,0.771 1.176,1.22c-0.022,-0.051 -0.042,-0.097 -0.059,-0.135l-0.965,-2.214l6.146,-0l3.76,8.997l3.576,-8.997l6.004,-0l-0.838,2.155c-0.623,1.602 -5.669,14.304 -5.974,15.157c-1.857,4.964 -5.23,6.503 -8.622,6.503l-1.582,-0l0,-5.603l1.582,-0c0.913,-0 1.579,-0.103 1.993,-0.508c0.423,-0.45 0.725,-0.93 0.917,-1.281c-0.782,-1.86 -3.067,-7.294 -4.599,-10.922c0.095,0.519 0.142,1.051 0.142,1.584l-0,10.569l-5.783,-0l0,-8.962c0,-0.882 -0.024,-1.709 -0.207,-2.418c-0.115,-0.451 -0.291,-0.848 -0.652,-1.118c-0.274,-0.188 -0.695,-0.242 -1.139,-0.216c-1.352,0.079 -2.811,1.163 -2.811,3.693l-0,9.021l-5.812,-0l-0,-3.11l-0.179,0.217c-1.69,2.047 -4.244,3.369 -7.083,3.369c-5.097,0 -9.197,-4.147 -9.197,-9.318c-0,-1.23 0.235,-2.404 0.662,-3.478l-3.097,0l-0,12.32l-5.841,-0l0,-12.32l-2.822,0l0,12.32l-5.838,-0l0,-17.688l5.838,0l0,0.003l2.822,0l0,-8.305l5.841,-0l-0,8.305l3.808,0l-0,3.947c1.618,-2.638 4.509,-4.392 7.824,-4.392c2.77,-0 5.255,1.252 6.946,3.228l0.316,0.369Zm-0,1.405l-3.579,3.353l-1.064,-1.374c-0.627,-0.808 -1.568,-1.352 -2.619,-1.352c-1.914,0 -3.419,1.662 -3.419,3.659c-0,2.02 1.502,3.688 3.419,3.688c1.093,0 2.058,-0.561 2.686,-1.411l1.038,-1.408l3.538,3.207l-0,-8.362Z" style="fill:#fff;fill-rule:nonzero;"/></g></g><g><path d="M4.818,1.41c0.29,-0.386 0.839,-0.677 1.448,-0.677c0.609,0 1.158,0.291 1.448,0.677c0.444,-0.19 1.065,-0.167 1.592,0.138c0.527,0.304 0.858,0.83 0.915,1.31c0.48,0.057 1.006,0.388 1.31,0.915c0.305,0.528 0.328,1.148 0.138,1.593c0.387,0.289 0.677,0.838 0.677,1.447c0,0.609 -0.29,1.158 -0.677,1.448c0.19,0.444 0.167,1.065 -0.138,1.592c-0.304,0.527 -0.83,0.858 -1.31,0.915c-0.057,0.48 -0.388,1.006 -0.915,1.311c-0.527,0.304 -1.148,0.327 -1.592,0.137c-0.29,0.387 -0.839,0.677 -1.448,0.677c-0.609,0 -1.158,-0.29 -1.448,-0.677c-0.444,0.19 -1.065,0.167 -1.592,-0.137c-0.527,-0.305 -0.858,-0.831 -0.915,-1.311c-0.48,-0.057 -1.006,-0.388 -1.31,-0.915c-0.305,-0.527 -0.328,-1.148 -0.138,-1.592c-0.387,-0.29 -0.677,-0.839 -0.677,-1.448c0,-0.609 0.29,-1.158 0.677,-1.447c-0.19,-0.445 -0.167,-1.065 0.138,-1.593c0.304,-0.527 0.83,-0.858 1.31,-0.915c0.057,-0.48 0.388,-1.006 0.915,-1.31c0.527,-0.305 1.148,-0.328 1.592,-0.138Z" style="fill:#fff;"/><path d="M7.714,1.41c0.444,-0.19 1.065,-0.167 1.592,0.138c0.527,0.304 0.858,0.83 0.915,1.31c0.48,0.057 1.006,0.388 1.31,0.915c0.305,0.528 0.328,1.148 0.138,1.593c0.387,0.289 0.677,0.838 0.677,1.447c0,0.609 -0.29,1.158 -0.677,1.448c0.19,0.444 0.167,1.065 -0.138,1.592c-0.304,0.527 -0.83,0.858 -1.31,0.915c-0.057,0.48 -0.388,1.006 -0.915,1.311c-0.527,0.304 -1.148,0.327 -1.592,0.137c-0.29,0.387 -0.839,0.677 -1.448,0.677c-0.609,0 -1.158,-0.29 -1.448,-0.677c-0.444,0.19 -1.065,0.167 -1.592,-0.137c-0.527,-0.305 -0.858,-0.831 -0.915,-1.311c-0.48,-0.057 -1.006,-0.388 -1.31,-0.915c-0.305,-0.527 -0.328,-1.148 -0.138,-1.592c-0.387,-0.29 -0.677,-0.839 -0.677,-1.448c0,-0.609 0.29,-1.158 0.677,-1.447c-0.19,-0.445 -0.167,-1.065 0.138,-1.593c0.304,-0.527 0.83,-0.858 1.31,-0.915c0.057,-0.48 0.388,-1.006 0.915,-1.31c0.527,-0.305 1.148,-0.328 1.592,-0.138c0.29,-0.386 0.839,-0.677 1.448,-0.677c0.609,0 1.158,0.291 1.448,0.677Z" style="fill:#ffa10d;fill-opacity:0.62;"/><path d="M6.971,2.095c0.358,-0.206 0.886,-0.249 1.364,-0.044c0.477,0.205 0.81,0.618 0.907,1.019c0.412,-0 0.891,0.227 1.202,0.643c0.311,0.417 0.394,0.94 0.277,1.336c0.357,0.206 0.658,0.643 0.719,1.159c0.062,0.516 -0.129,1.01 -0.428,1.295c0.206,0.357 0.249,0.885 0.044,1.363c-0.205,0.477 -0.618,0.81 -1.018,0.907c-0.001,0.412 -0.228,0.892 -0.644,1.203c-0.417,0.311 -0.94,0.393 -1.336,0.276c-0.206,0.357 -0.643,0.658 -1.159,0.72c-0.516,0.061 -1.01,-0.13 -1.295,-0.429c-0.357,0.206 -0.885,0.249 -1.363,0.044c-0.477,-0.205 -0.81,-0.618 -0.907,-1.018c-0.412,-0.001 -0.891,-0.228 -1.202,-0.644c-0.311,-0.416 -0.394,-0.94 -0.277,-1.336c-0.357,-0.206 -0.658,-0.642 -0.719,-1.158c-0.062,-0.516 0.129,-1.011 0.428,-1.295c-0.206,-0.358 -0.249,-0.886 -0.044,-1.364c0.205,-0.477 0.618,-0.81 1.018,-0.907c0.001,-0.412 0.228,-0.891 0.644,-1.202c0.416,-0.311 0.94,-0.393 1.336,-0.277c0.206,-0.357 0.643,-0.658 1.159,-0.719c0.515,-0.062 1.01,0.129 1.294,0.428Z" style="fill:#ffa10d;fill-opacity:0.47;"/><path d="M6.288,3.012c0.258,-0.204 0.671,-0.298 1.071,-0.191c0.4,0.108 0.711,0.395 0.833,0.701c0.325,-0.047 0.729,0.078 1.022,0.371c0.294,0.293 0.418,0.697 0.371,1.022c0.306,0.123 0.593,0.433 0.701,0.833c0.107,0.4 0.013,0.813 -0.19,1.071c0.203,0.259 0.297,0.671 0.19,1.071c-0.108,0.401 -0.395,0.711 -0.701,0.833c0.047,0.325 -0.077,0.73 -0.371,1.023c-0.293,0.293 -0.697,0.417 -1.022,0.371c-0.122,0.305 -0.433,0.593 -0.833,0.7c-0.4,0.107 -0.813,0.013 -1.071,-0.19c-0.258,0.203 -0.671,0.297 -1.071,0.19c-0.401,-0.107 -0.711,-0.395 -0.833,-0.7c-0.325,0.046 -0.729,-0.078 -1.023,-0.371c-0.293,-0.293 -0.417,-0.698 -0.37,-1.023c-0.306,-0.122 -0.593,-0.432 -0.701,-0.833c-0.107,-0.4 -0.013,-0.812 0.19,-1.071c-0.203,-0.258 -0.297,-0.671 -0.19,-1.071c0.108,-0.4 0.395,-0.71 0.701,-0.833c-0.047,-0.325 0.077,-0.729 0.37,-1.022c0.294,-0.293 0.698,-0.418 1.023,-0.371c0.122,-0.306 0.432,-0.593 0.833,-0.701c0.4,-0.107 0.813,-0.013 1.071,0.191Z" style="fill:#ffa10d;fill-opacity:0.76;"/><path d="M7.016,4.101c1.5,0.402 2.392,1.946 1.99,3.446c-0.402,1.501 -1.946,2.392 -3.446,1.99c-1.5,-0.402 -2.392,-1.946 -1.99,-3.446c0.402,-1.5 1.946,-2.392 3.446,-1.99Z" style="fill:#fff;"/></g></svg>